<?xml version="1.0" encoding="utf-8"?>
<!-- Generator: Adobe Illustrator 25.4.1, SVG Export Plug-In . SVG Version: 6.00 Build 0)  -->
<svg version="1.1" id="Capa_1" xmlns="http://www.w3.org/2000/svg" xmlns:xlink="http://www.w3.org/1999/xlink" x="0px" y="0px"
	 viewBox="0 0 167.3 50" style="enable-background:new 0 0 167.3 50;" xml:space="preserve">
<style type="text/css">
	.st0{fill:#FFFFFF;}
	.st1{fill:#979797;}
	.st2{fill:#1434CB;}
	.st3{fill:none;}
	.st4{fill:#231F20;}
	.st5{fill:#FF5F00;}
	.st6{fill:#EB001B;}
	.st7{fill:#F79E1B;}
</style>
<g id="Visa">
	<path class="st0" d="M13.5,6.5h54C68.4,6.5,69,7.2,69,8v34c0,0.8-0.7,1.5-1.5,1.5h-54c-0.8,0-1.5-0.7-1.5-1.5V8
		C12,7.2,12.7,6.5,13.5,6.5z"/>
	<path class="st1" d="M67.5,7c0.6,0,1,0.4,1,1v34c0,0.6-0.4,1-1,1h-54c-0.6,0-1-0.4-1-1V8c0-0.6,0.4-1,1-1H67.5 M67.5,6h-54
		c-1.1,0-2,0.9-2,2v34c0,1.1,0.9,2,2,2h54c1.1,0,2-0.9,2-2V8C69.5,6.9,68.6,6,67.5,6z"/>
	<path class="st2" d="M34.5,17.2L28,32.8h-4.3l-3.2-12.5c-0.1-0.6-0.5-1.1-1-1.4c-1.3-0.6-2.6-1-4-1.3l0.1-0.5h6.9
		c0.9,0,1.7,0.7,1.9,1.6l1.7,9l4.2-10.6L34.5,17.2z M51.2,27.7c0-4.1-5.7-4.4-5.7-6.2c0-0.6,0.5-1.2,1.7-1.3c1.4-0.1,2.8,0.1,4,0.7
		l0.7-3.3c-1.2-0.5-2.5-0.7-3.8-0.7c-4,0-6.8,2.1-6.8,5.2c0,2.2,2,3.5,3.5,4.2s2.1,1.3,2.1,1.9c0,1-1.3,1.5-2.4,1.5
		c-1.4,0-2.9-0.3-4.2-1l-0.7,3.4c1.4,0.6,3,0.8,4.5,0.8C48.5,33.1,51.2,31,51.2,27.7 M61.8,32.8h3.8l-3.3-15.6h-3.5
		c-0.8,0-1.4,0.4-1.7,1.1L51,32.8h4.2l0.8-2.3h5.2L61.8,32.8z M57.3,27.3l2.1-5.9l1.2,5.9L57.3,27.3z M40.3,17.2l-3.3,15.6h-4
		l3.3-15.6L40.3,17.2z"/>
</g>
<g id="MasterCard">
	<path class="st0" d="M99.6,5.9h54c0.8,0,1.5,0.7,1.5,1.5v34c0,0.8-0.7,1.5-1.5,1.5h-54c-0.8,0-1.5-0.7-1.5-1.5v-34
		C98.1,6.5,98.8,5.9,99.6,5.9z"/>
	<path class="st1" d="M153.6,6.4c0.6,0,1,0.4,1,1v34c0,0.6-0.4,1-1,1h-54c-0.6,0-1-0.4-1-1v-34c0-0.6,0.4-1,1-1L153.6,6.4
		 M153.6,5.4h-54c-1.1,0-2,0.9-2,2v34c0,1.1,0.9,2,2,2h54c1.1,0,2-0.9,2-2v-34C155.6,6.3,154.7,5.4,153.6,5.4z"/>
	<rect x="101.6" y="3.9" class="st3" width="50" height="41"/>
	<path class="st4" d="M114,39.7v-2c0-0.7-0.5-1.3-1.1-1.3h-0.2c-0.5,0-0.9,0.2-1.2,0.6c-0.2-0.4-0.6-0.6-1.1-0.6
		c-0.4,0-0.8,0.2-1,0.5v-0.4h-0.7v3.2h0.7v-1.8c-0.1-0.4,0.2-0.8,0.6-0.8c0,0,0,0,0,0h0.2c0.5,0,0.7,0.3,0.7,0.9v1.8h0.8v-1.8
		c-0.1-0.4,0.2-0.8,0.7-0.8c0,0,0,0,0,0h0.1c0.5,0,0.7,0.3,0.7,0.9v1.8H114z M124.6,36.4h-1.2v-1h-0.7v1h-0.7v0.7h0.7v1.5
		c0,0.8,0.3,1.2,1.1,1.2c0.3,0,0.6-0.1,0.9-0.2l-0.2-0.6c-0.2,0.1-0.4,0.2-0.6,0.2c-0.4,0-0.5-0.2-0.5-0.5v-1.4h1.2L124.6,36.4z
		 M130.6,36.3c-0.4,0-0.7,0.2-0.8,0.5v-0.4H129v3.3h0.8v-1.8c0-0.5,0.2-0.8,0.7-0.8c0.2,0,0.3,0,0.4,0.1l0.2-0.7
		C131,36.4,130.8,36.4,130.6,36.3L130.6,36.3z M121.5,36.7c-0.4-0.2-0.9-0.4-1.3-0.3c-0.8,0-1.3,0.4-1.3,1s0.4,0.9,1.1,1l0.3,0
		c0.4,0.1,0.6,0.2,0.6,0.3s-0.3,0.4-0.8,0.4c-0.4,0-0.8-0.1-1.1-0.3l-0.3,0.5c0.4,0.3,0.9,0.4,1.4,0.4c0.9,0,1.5-0.4,1.5-1.1
		s-0.4-0.9-1.1-1h-0.3c-0.3,0-0.6-0.1-0.6-0.3s0.2-0.4,0.6-0.4c0.4,0,0.7,0.1,1,0.3L121.5,36.7z M140.5,36.3c-0.4,0-0.7,0.2-0.9,0.5
		v-0.4h-0.7v3.3h0.7v-1.8c0-0.5,0.2-0.8,0.7-0.8c0.2,0,0.3,0,0.4,0.1l0.2-0.7C140.8,36.4,140.7,36.4,140.5,36.3L140.5,36.3z
		 M131.4,38c0,0.9,0.7,1.7,1.6,1.7c0,0,0,0,0,0h0.2c0.4,0,0.8-0.1,1.2-0.4l-0.3-0.6c-0.2,0.2-0.5,0.3-0.8,0.3c-0.6,0-1-0.5-1-1
		c0-0.6,0.5-1,1-1c0.3,0,0.6,0.1,0.8,0.3l0.3-0.6c-0.3-0.3-0.7-0.4-1.2-0.4c-0.9-0.1-1.7,0.6-1.7,1.5C131.4,37.9,131.4,38,131.4,38z
		 M138,38v-1.6h-0.7v0.4c-0.2-0.3-0.6-0.5-1-0.5c-0.9,0-1.7,0.8-1.7,1.7c0,0.9,0.8,1.7,1.7,1.7c0.4,0,0.8-0.2,1-0.5v0.4h0.7V38z
		 M135.4,38c0-0.5,0.5-0.9,1-0.9c0.5,0,0.9,0.5,0.9,1c0,0.5-0.5,0.9-1,0.9C135.7,39,135.3,38.6,135.4,38L135.4,38z M126.8,36.4
		c-0.9,0-1.7,0.8-1.7,1.7c0,0.9,0.8,1.7,1.7,1.7c0.5,0,1-0.1,1.3-0.5l-0.3-0.5c-0.3,0.2-0.6,0.4-1,0.3c-0.5,0.1-0.9-0.3-1-0.8h2.4
		c0-0.1,0-0.2,0-0.3C128.3,37.2,127.7,36.4,126.8,36.4z M126.8,37c0.4,0,0.8,0.3,0.8,0.8c0,0,0,0,0,0H126
		C126,37.3,126.4,37,126.8,37z M144.6,38.1v-2.9h-0.8v1.7c-0.2-0.3-0.6-0.5-1-0.5c-0.9,0-1.7,0.8-1.7,1.7c0,0.9,0.8,1.7,1.7,1.7
		c0.4,0,0.8-0.2,1-0.5v0.4h0.7L144.6,38.1z M145.8,39.2h0.1c0.1,0,0.1,0.1,0.2,0.2c0.1,0.1,0,0.3-0.1,0.3c0,0-0.1,0.1-0.1,0.1
		c0,0-0.1,0-0.1,0c-0.1,0-0.3-0.1-0.3-0.2c0-0.1,0-0.2,0-0.2c0-0.1,0.1-0.1,0.2-0.2L145.8,39.2L145.8,39.2z M145.8,39.8
		C145.8,39.8,145.8,39.8,145.8,39.8h0.2c0.1-0.1,0.1-0.3,0-0.4c0,0,0,0,0,0l-0.1,0h-0.1h-0.1l-0.1,0c-0.1,0.1-0.1,0.3,0,0.4
		c0,0,0,0,0,0H145.8C145.7,39.8,145.7,39.8,145.8,39.8z M145.8,39.4L145.8,39.4C145.9,39.4,145.9,39.4,145.8,39.4
		c0.1,0.1,0.1,0.1,0.1,0.1c0,0,0,0-0.1,0l0.1,0.1h-0.1l-0.1-0.1l0,0v0.1h-0.1L145.8,39.4L145.8,39.4z M145.7,39.5L145.7,39.5
		l0.1,0.1l0,0l0,0L145.7,39.5L145.7,39.5z M141.9,38.1c0-0.6,0.4-1,1-1c0.6,0,1,0.4,1,1s-0.4,1-1,1
		C142.4,39.1,141.9,38.6,141.9,38.1z M118,38.1v-1.6h-0.7v0.4c-0.2-0.3-0.6-0.5-1-0.5c-0.9,0-1.7,0.8-1.7,1.7c0,0.9,0.8,1.7,1.7,1.7
		c0.4,0,0.8-0.2,1-0.5v0.4h0.7V38.1z M115.4,38.1c0-0.6,0.5-1,1.1-0.9s1,0.5,0.9,1.1l0,0c0,0.5-0.5,0.9-1,0.9
		C115.8,39.1,115.4,38.7,115.4,38.1C115.4,38.1,115.4,38.1,115.4,38.1z"/>
	<rect x="121.3" y="11.6" class="st5" width="10.7" height="19.3"/>
	<path class="st6" d="M121.9,21.3c0-3.7,1.7-7.3,4.7-9.6c-5.3-4.2-13-3.3-17.2,2.1c-4.2,5.3-3.3,13,2.1,17.2
		c4.4,3.5,10.7,3.5,15.1,0C123.7,28.6,121.9,25,121.9,21.3z"/>
	<path class="st7" d="M146.5,21.3c0,6.8-5.5,12.3-12.3,12.3c-2.8,0-5.4-0.9-7.6-2.6c5.3-4.2,6.3-11.9,2.1-17.2c0,0,0,0,0,0
		c-0.6-0.7-1.3-1.4-2.1-2c5.3-4.2,13-3.2,17.2,2.1C145.5,15.9,146.5,18.6,146.5,21.3L146.5,21.3z"/>
	<path class="st7" d="M145.3,28.9v-0.4h0.2v-0.1H145v0.1h0.2L145.3,28.9L145.3,28.9z M146.1,28.9v-0.5H146l-0.1,0.3l-0.2-0.3h-0.1
		v0.5h0.1v-0.4l0.1,0.3h0.1l0.1-0.3v0.4H146.1z"/>
</g>
</svg>
