<?xml version="1.0" encoding="utf-8"?>
<!-- Generator: Adobe Illustrator 25.4.1, SVG Export Plug-In . SVG Version: 6.00 Build 0)  -->
<svg version="1.1" xmlns="http://www.w3.org/2000/svg" xmlns:xlink="http://www.w3.org/1999/xlink" x="0px" y="0px"
	 viewBox="0 0 1200 1200" style="enable-background:new 0 0 1200 1200;" xml:space="preserve">
<style type="text/css">
	.st0{fill:#C4A4DE;}
</style>
<g id="Graphic_Elements">
	<g>
		<path class="st0" d="M733.09,183.5c51.74,0,93.68,78.71,93.68,145.39c0,66.69-41.94,120.75-93.68,120.75
			c-51.74,0-93.68-54.06-93.68-120.75C639.41,262.21,681.35,183.5,733.09,183.5z"/>
		<path class="st0" d="M466.91,183.5c51.74,0,93.68,78.71,93.68,145.39c0,66.69-41.94,120.75-93.68,120.75
			c-51.74,0-93.68-54.06-93.68-120.75C373.23,262.21,415.17,183.5,466.91,183.5z"/>
		<path class="st0" d="M186.35,535.2c-21.97-55.01-12.35-134.14,31.51-151.66c43.86-17.52,105.35,33.2,127.32,88.21
			c21.97,55.01,4.23,113.81-39.63,131.33C261.69,620.6,208.32,590.21,186.35,535.2z"/>
		<path class="st0" d="M1013.65,535.2c-21.97,55.01-75.34,85.4-119.2,67.88c-43.86-17.52-61.61-76.32-39.63-131.33
			c21.97-55.01,83.46-105.73,127.32-88.21C1026,401.06,1035.62,480.19,1013.65,535.2z"/>
		<path class="st0" d="M935.16,839.06c-10.05-45.05-34-85.68-60.49-123.34c-62.07-88.22-161.49-177.3-274.67-177.3
			c-112.71,0-212.58,89.06-274.67,177.3c-26.5,37.66-50.45,78.28-60.49,123.34c-10.05,45.05-4.55,95.44,23.36,132.04
			c27.91,36.6,80.78,54.87,122.12,35.06c24.58-11.78,44.47-35.53,71.59-37.82c24.89-2.1,46.89,14.67,67.66,28.69
			c15.01,10.13,33.1,19.35,50.43,19.47c17.33-0.12,35.42-9.34,50.43-19.47c20.76-14.02,42.76-30.78,67.66-28.69
			c27.12,2.28,47.01,26.04,71.59,37.82c41.34,19.81,94.21,1.54,122.12-35.06C939.71,934.5,945.21,884.12,935.16,839.06z
			 M698.59,784.79c-12.77,23.33-32.92,43.89-49.94,59.88c-9.15,8.6-18.76,16.64-28.77,24.08c-0.02,0.01-0.04,0.03-0.06,0.04
			c-11.76,8.66-27.88,8.66-39.64,0c-0.02-0.02-0.04-0.03-0.06-0.04c-10.01-7.43-19.62-15.48-28.77-24.08
			c-17.02-15.99-37.17-36.55-49.94-59.88c-10.55-19.27-16.06-40.44-10.6-62.5c5.23-21.14,21.92-39.71,42.38-42.31
			c23.66-3,51.2,13.65,66.81,32.77c15.6-19.12,43.15-35.77,66.81-32.77c20.46,2.59,37.15,21.17,42.38,42.31
			C714.65,744.35,709.14,765.52,698.59,784.79z"/>
	</g>
</g>
<g id="Text">
</g>
</svg>
